<?xml version="1.0" encoding="us-ascii" standalone="no"?><svg xmlns="http://www.w3.org/2000/svg" xmlns:xlink="http://www.w3.org/1999/xlink" contentStyleType="text/css" height="506px" preserveAspectRatio="none" style="width:502px;height:506px;background:#FFFFFF;" version="1.1" viewBox="0 0 502 506" width="502px" zoomAndPan="magnify"><defs/><g><!--class Matriz--><g id="elem_Matriz"><rect codeLine="1" fill="#F1F1F1" height="80.5938" id="Matriz" rx="2.5" ry="2.5" style="stroke:#181818;stroke-width:0.5;" width="196" x="165.5" y="262"/><ellipse cx="236.75" cy="278" fill="#ADD1B2" rx="11" ry="11" style="stroke:#181818;stroke-width:1.0;"/><path d="M239.0938,273.6719 C238.1563,273.2344 237.5625,273.0938 236.6875,273.0938 C234.0625,273.0938 232.0625,275.1719 232.0625,277.8906 L232.0625,279.0156 C232.0625,281.5938 234.1719,283.4844 237.0625,283.4844 C238.2813,283.4844 239.4375,283.1875 240.1875,282.6406 C240.7656,282.2344 241.0938,281.7813 241.0938,281.3906 C241.0938,280.9375 240.7031,280.5469 240.2344,280.5469 C240.0156,280.5469 239.8125,280.625 239.625,280.8125 C239.1719,281.2969 239.1719,281.2969 238.9844,281.3906 C238.5625,281.6563 237.875,281.7813 237.1094,281.7813 C235.0625,281.7813 233.7656,280.6875 233.7656,278.9844 L233.7656,277.8906 C233.7656,276.1094 235.0156,274.7969 236.75,274.7969 C237.3281,274.7969 237.9375,274.9531 238.4063,275.2031 C238.8906,275.4844 239.0625,275.7031 239.1563,276.1094 C239.2188,276.5156 239.25,276.6406 239.3906,276.7656 C239.5313,276.9063 239.7656,277.0156 239.9844,277.0156 C240.25,277.0156 240.5156,276.875 240.6875,276.6563 C240.7969,276.5 240.8281,276.3125 240.8281,275.8906 L240.8281,274.4688 C240.8281,274.0313 240.8125,273.9063 240.7188,273.75 C240.5625,273.4844 240.2813,273.3438 239.9844,273.3438 C239.6875,273.3438 239.4844,273.4375 239.2656,273.75 L239.0938,273.6719 Z " fill="#000000"/><text fill="#000000" font-family="sans-serif" font-size="14" lengthAdjust="spacing" textLength="45" x="257.25" y="282.8467">Matriz</text><line style="stroke:#181818;stroke-width:0.5;" x1="166.5" x2="360.5" y1="294" y2="294"/><rect fill="none" height="6" style="stroke:#C82930;stroke-width:1.0;" width="6" x="173.5" y="304.6484"/><text fill="#000000" font-family="sans-serif" font-size="14" lengthAdjust="spacing" textLength="108" x="185.5" y="310.9951">elementos: list</text><line style="stroke:#181818;stroke-width:0.5;" x1="166.5" x2="360.5" y1="318.2969" y2="318.2969"/><ellipse cx="176.5" cy="331.9453" fill="#84BE84" rx="3" ry="3" style="stroke:#038048;stroke-width:1.0;"/><text fill="#000000" font-family="sans-serif" font-size="14" lengthAdjust="spacing" textLength="170" x="185.5" y="335.292">__init__(elementos: list)</text></g><!--class Transpuesta--><g id="elem_Transpuesta"><rect codeLine="6" fill="#F1F1F1" height="96.8906" id="Transpuesta" rx="2.5" ry="2.5" style="stroke:#181818;stroke-width:0.5;" width="237" x="7" y="403"/><ellipse cx="77.25" cy="419" fill="#ADD1B2" rx="11" ry="11" style="stroke:#181818;stroke-width:1.0;"/><path d="M79.5938,414.6719 C78.6563,414.2344 78.0625,414.0938 77.1875,414.0938 C74.5625,414.0938 72.5625,416.1719 72.5625,418.8906 L72.5625,420.0156 C72.5625,422.5938 74.6719,424.4844 77.5625,424.4844 C78.7813,424.4844 79.9375,424.1875 80.6875,423.6406 C81.2656,423.2344 81.5938,422.7813 81.5938,422.3906 C81.5938,421.9375 81.2031,421.5469 80.7344,421.5469 C80.5156,421.5469 80.3125,421.625 80.125,421.8125 C79.6719,422.2969 79.6719,422.2969 79.4844,422.3906 C79.0625,422.6563 78.375,422.7813 77.6094,422.7813 C75.5625,422.7813 74.2656,421.6875 74.2656,419.9844 L74.2656,418.8906 C74.2656,417.1094 75.5156,415.7969 77.25,415.7969 C77.8281,415.7969 78.4375,415.9531 78.9063,416.2031 C79.3906,416.4844 79.5625,416.7031 79.6563,417.1094 C79.7188,417.5156 79.75,417.6406 79.8906,417.7656 C80.0313,417.9063 80.2656,418.0156 80.4844,418.0156 C80.75,418.0156 81.0156,417.875 81.1875,417.6563 C81.2969,417.5 81.3281,417.3125 81.3281,416.8906 L81.3281,415.4688 C81.3281,415.0313 81.3125,414.9063 81.2188,414.75 C81.0625,414.4844 80.7813,414.3438 80.4844,414.3438 C80.1875,414.3438 79.9844,414.4375 79.7656,414.75 L79.5938,414.6719 Z " fill="#000000"/><text fill="#000000" font-family="sans-serif" font-size="14" lengthAdjust="spacing" textLength="88" x="97.75" y="423.8467">Transpuesta</text><line style="stroke:#181818;stroke-width:0.5;" x1="8" x2="243" y1="435" y2="435"/><rect fill="none" height="6" style="stroke:#C82930;stroke-width:1.0;" width="6" x="15" y="445.6484"/><text fill="#000000" font-family="sans-serif" font-size="14" lengthAdjust="spacing" textLength="101" x="27" y="451.9951">matriz: Matriz</text><line style="stroke:#181818;stroke-width:0.5;" x1="8" x2="243" y1="459.2969" y2="459.2969"/><ellipse cx="18" cy="472.9453" fill="#84BE84" rx="3" ry="3" style="stroke:#038048;stroke-width:1.0;"/><text fill="#000000" font-family="sans-serif" font-size="14" lengthAdjust="spacing" textLength="163" x="27" y="476.292">__init__(matriz: Matriz)</text><ellipse cx="18" cy="489.2422" fill="#84BE84" rx="3" ry="3" style="stroke:#038048;stroke-width:1.0;"/><text fill="#000000" font-family="sans-serif" font-size="14" lengthAdjust="spacing" textLength="211" x="27" y="492.5889">calcular_transpuesta(): Matriz</text></g><!--class Imprimir--><g id="elem_Imprimir"><rect codeLine="12" fill="#F1F1F1" height="96.8906" id="Imprimir" rx="2.5" ry="2.5" style="stroke:#181818;stroke-width:0.5;" width="189" x="306" y="403"/><ellipse cx="365.25" cy="419" fill="#ADD1B2" rx="11" ry="11" style="stroke:#181818;stroke-width:1.0;"/><path d="M367.5938,414.6719 C366.6563,414.2344 366.0625,414.0938 365.1875,414.0938 C362.5625,414.0938 360.5625,416.1719 360.5625,418.8906 L360.5625,420.0156 C360.5625,422.5938 362.6719,424.4844 365.5625,424.4844 C366.7813,424.4844 367.9375,424.1875 368.6875,423.6406 C369.2656,423.2344 369.5938,422.7813 369.5938,422.3906 C369.5938,421.9375 369.2031,421.5469 368.7344,421.5469 C368.5156,421.5469 368.3125,421.625 368.125,421.8125 C367.6719,422.2969 367.6719,422.2969 367.4844,422.3906 C367.0625,422.6563 366.375,422.7813 365.6094,422.7813 C363.5625,422.7813 362.2656,421.6875 362.2656,419.9844 L362.2656,418.8906 C362.2656,417.1094 363.5156,415.7969 365.25,415.7969 C365.8281,415.7969 366.4375,415.9531 366.9063,416.2031 C367.3906,416.4844 367.5625,416.7031 367.6563,417.1094 C367.7188,417.5156 367.75,417.6406 367.8906,417.7656 C368.0313,417.9063 368.2656,418.0156 368.4844,418.0156 C368.75,418.0156 369.0156,417.875 369.1875,417.6563 C369.2969,417.5 369.3281,417.3125 369.3281,416.8906 L369.3281,415.4688 C369.3281,415.0313 369.3125,414.9063 369.2188,414.75 C369.0625,414.4844 368.7813,414.3438 368.4844,414.3438 C368.1875,414.3438 367.9844,414.4375 367.7656,414.75 L367.5938,414.6719 Z " fill="#000000"/><text fill="#000000" font-family="sans-serif" font-size="14" lengthAdjust="spacing" textLength="62" x="385.75" y="423.8467">Imprimir</text><line style="stroke:#181818;stroke-width:0.5;" x1="307" x2="494" y1="435" y2="435"/><rect fill="none" height="6" style="stroke:#C82930;stroke-width:1.0;" width="6" x="314" y="445.6484"/><text fill="#000000" font-family="sans-serif" font-size="14" lengthAdjust="spacing" textLength="101" x="326" y="451.9951">matriz: Matriz</text><line style="stroke:#181818;stroke-width:0.5;" x1="307" x2="494" y1="459.2969" y2="459.2969"/><ellipse cx="317" cy="472.9453" fill="#84BE84" rx="3" ry="3" style="stroke:#038048;stroke-width:1.0;"/><text fill="#000000" font-family="sans-serif" font-size="14" lengthAdjust="spacing" textLength="163" x="326" y="476.292">__init__(matriz: Matriz)</text><ellipse cx="317" cy="489.2422" fill="#84BE84" rx="3" ry="3" style="stroke:#038048;stroke-width:1.0;"/><text fill="#000000" font-family="sans-serif" font-size="14" lengthAdjust="spacing" textLength="111" x="326" y="492.5889">imprimir(): void</text></g><!--class Lanzador--><g id="elem_Lanzador"><rect codeLine="18" fill="#F1F1F1" height="194.6719" id="Lanzador" rx="2.5" ry="2.5" style="stroke:#181818;stroke-width:0.5;" width="209" x="159" y="7"/><ellipse cx="226.75" cy="23" fill="#ADD1B2" rx="11" ry="11" style="stroke:#181818;stroke-width:1.0;"/><path d="M229.0938,18.6719 C228.1563,18.2344 227.5625,18.0938 226.6875,18.0938 C224.0625,18.0938 222.0625,20.1719 222.0625,22.8906 L222.0625,24.0156 C222.0625,26.5938 224.1719,28.4844 227.0625,28.4844 C228.2813,28.4844 229.4375,28.1875 230.1875,27.6406 C230.7656,27.2344 231.0938,26.7813 231.0938,26.3906 C231.0938,25.9375 230.7031,25.5469 230.2344,25.5469 C230.0156,25.5469 229.8125,25.625 229.625,25.8125 C229.1719,26.2969 229.1719,26.2969 228.9844,26.3906 C228.5625,26.6563 227.875,26.7813 227.1094,26.7813 C225.0625,26.7813 223.7656,25.6875 223.7656,23.9844 L223.7656,22.8906 C223.7656,21.1094 225.0156,19.7969 226.75,19.7969 C227.3281,19.7969 227.9375,19.9531 228.4063,20.2031 C228.8906,20.4844 229.0625,20.7031 229.1563,21.1094 C229.2188,21.5156 229.25,21.6406 229.3906,21.7656 C229.5313,21.9063 229.7656,22.0156 229.9844,22.0156 C230.25,22.0156 230.5156,21.875 230.6875,21.6563 C230.7969,21.5 230.8281,21.3125 230.8281,20.8906 L230.8281,19.4688 C230.8281,19.0313 230.8125,18.9063 230.7188,18.75 C230.5625,18.4844 230.2813,18.3438 229.9844,18.3438 C229.6875,18.3438 229.4844,18.4375 229.2656,18.75 L229.0938,18.6719 Z " fill="#000000"/><text fill="#000000" font-family="sans-serif" font-size="14" lengthAdjust="spacing" textLength="65" x="247.25" y="27.8467">Lanzador</text><line style="stroke:#181818;stroke-width:0.5;" x1="160" x2="367" y1="39" y2="39"/><rect fill="none" height="6" style="stroke:#C82930;stroke-width:1.0;" width="6" x="167" y="49.6484"/><text fill="#000000" font-family="sans-serif" font-size="14" lengthAdjust="spacing" textLength="108" x="179" y="55.9951">elementos: list</text><rect fill="none" height="6" style="stroke:#C82930;stroke-width:1.0;" width="6" x="167" y="65.9453"/><text fill="#000000" font-family="sans-serif" font-size="14" lengthAdjust="spacing" textLength="127" x="179" y="72.292">cantidad_filas: int</text><rect fill="none" height="6" style="stroke:#C82930;stroke-width:1.0;" width="6" x="167" y="82.2422"/><text fill="#000000" font-family="sans-serif" font-size="14" lengthAdjust="spacing" textLength="165" x="179" y="88.5889">cantidad_columnas: int</text><rect fill="none" height="6" style="stroke:#C82930;stroke-width:1.0;" width="6" x="167" y="98.5391"/><text fill="#000000" font-family="sans-serif" font-size="14" lengthAdjust="spacing" textLength="101" x="179" y="104.8857">matriz: Matriz</text><rect fill="none" height="6" style="stroke:#C82930;stroke-width:1.0;" width="6" x="167" y="114.8359"/><text fill="#000000" font-family="sans-serif" font-size="14" lengthAdjust="spacing" textLength="183" x="179" y="121.1826">transpuesta: Transpuesta</text><rect fill="none" height="6" style="stroke:#C82930;stroke-width:1.0;" width="6" x="167" y="131.1328"/><text fill="#000000" font-family="sans-serif" font-size="14" lengthAdjust="spacing" textLength="133" x="179" y="137.4795">imprimir: Imprimir</text><line style="stroke:#181818;stroke-width:0.5;" x1="160" x2="367" y1="144.7813" y2="144.7813"/><ellipse cx="170" cy="158.4297" fill="#84BE84" rx="3" ry="3" style="stroke:#038048;stroke-width:1.0;"/><text fill="#000000" font-family="sans-serif" font-size="14" lengthAdjust="spacing" textLength="62" x="179" y="161.7764">__init__()</text><ellipse cx="170" cy="174.7266" fill="#84BE84" rx="3" ry="3" style="stroke:#038048;stroke-width:1.0;"/><text fill="#000000" font-family="sans-serif" font-size="14" lengthAdjust="spacing" textLength="140" x="179" y="178.0732">crear_matriz(): void</text><ellipse cx="170" cy="191.0234" fill="#84BE84" rx="3" ry="3" style="stroke:#038048;stroke-width:1.0;"/><text fill="#000000" font-family="sans-serif" font-size="14" lengthAdjust="spacing" textLength="92" x="179" y="194.3701">lanzar(): void</text></g><!--link Matriz to Transpuesta--><g id="link_Matriz_Transpuesta"><path codeLine="30" d="M226.155,343.28 C208.913,361.647 200.6249,370.4757 182.5589,389.7198 " fill="none" id="Matriz-to-Transpuesta" style="stroke:#181818;stroke-width:1.0;"/><polygon fill="none" points="170.239,402.8431,186.9333,393.8265,178.1845,385.6132,170.239,402.8431" style="stroke:#181818;stroke-width:1.0;"/></g><!--link Matriz to Imprimir--><g id="link_Matriz_Imprimir"><path codeLine="31" d="M300.574,343.28 C317.691,361.647 325.8778,370.4311 343.8128,389.6752 " fill="none" id="Matriz-to-Imprimir" style="stroke:#181818;stroke-width:1.0;"/><polygon fill="none" points="356.085,402.8431,348.2021,385.5845,339.4235,393.7659,356.085,402.8431" style="stroke:#181818;stroke-width:1.0;"/></g><!--link Lanzador to Matriz--><g id="link_Lanzador_Matriz"><path codeLine="32" d="M263.5,202.064 C263.5,223.13 263.5,238.283 263.5,255.631 " fill="none" id="Lanzador-to-Matriz" style="stroke:#181818;stroke-width:1.0;"/><polygon fill="#181818" points="263.5,261.631,267.5,252.631,263.5,256.631,259.5,252.631,263.5,261.631" style="stroke:#181818;stroke-width:1.0;"/></g><!--link Lanzador to Transpuesta--><g id="link_Lanzador_Transpuesta"><path codeLine="33" d="M179.943,202.292 C167.231,221.102 155.655,241.404 147.5,262 C129.487,307.491 125.0638,357.6347 124.4458,396.7642 " fill="none" id="Lanzador-to-Transpuesta" style="stroke:#181818;stroke-width:1.0;"/><polygon fill="#181818" points="124.351,402.7635,128.4926,393.8278,124.43,397.7641,120.4936,393.7015,124.351,402.7635" style="stroke:#181818;stroke-width:1.0;"/></g><!--link Lanzador to Imprimir--><g id="link_Lanzador_Imprimir"><path codeLine="34" d="M347.146,202.257 C359.849,221.07 371.399,241.382 379.5,262 C397.383,307.511 401.5273,357.6513 401.9033,396.7742 " fill="none" id="Lanzador-to-Imprimir" style="stroke:#181818;stroke-width:1.0;"/><polygon fill="#181818" points="401.961,402.7739,405.8743,393.7359,401.9129,397.7741,397.8747,393.8128,401.961,402.7739" style="stroke:#181818;stroke-width:1.0;"/></g><!--SRC=[dP6z3iCW38JtF8N7H1Klm92zKhjrHnQXaYKW4P0E_Ndt9YaXaAfBLv_ydUyiDNeFPmoExl2e01WehOooeVSSDFampGuW15aAGjGxiQbULIKNniMXzSEeVC08CWkLHth9ARLc4ILgEMfq8coekadxoUbe1aU6t9ys5DTdzAsdRWEVqDwnwztF8jXqemtKOIUkDArm8BkRorwFnkRIrtqCie0yBsuHr_ju2bfcYcKvDJNrOQSaiw3d44Mu-5t6dcrXbi-JLUg0iNOzkPZbX49O4My0]--></g></svg>